<?xml version="1.0" encoding="utf-8"?>
<!-- Generator: Adobe Illustrator 16.2.1, SVG Export Plug-In . SVG Version: 6.00 Build 0)  -->
<!DOCTYPE svg PUBLIC "-//W3C//DTD SVG 1.1//EN" "http://www.w3.org/Graphics/SVG/1.1/DTD/svg11.dtd">
<svg version="1.1" id="Calque_1" xmlns="http://www.w3.org/2000/svg" xmlns:xlink="http://www.w3.org/1999/xlink" x="0px" y="0px"
	 width="168.417px" height="72.959px" viewBox="0 0 168.417 72.959" enable-background="new 0 0 168.417 72.959"
	 xml:space="preserve">
<g>
	<path fill="#AF302A" d="M16.798,67.979c-7.003,0-12.7-5.698-12.7-12.7V16.202c0-7.003,5.697-12.7,12.7-12.7h133.839
		c7.002,0,12.699,5.697,12.699,12.7v39.076c0,7.002-5.697,12.7-12.699,12.7H16.798z"/>
	<path fill="#EC422E" d="M150.635,6.677c5.261,0,9.525,4.265,9.525,9.525v39.076c0,5.26-4.265,9.525-9.525,9.525H16.798
		c-5.26,0-9.525-4.266-9.525-9.525V16.202c0-5.26,4.265-9.525,9.525-9.525H150.635 M150.635,0.327H16.798
		c-8.753,0-15.875,7.122-15.875,15.875v39.076c0,8.754,7.122,15.875,15.875,15.875h133.839c8.753,0,15.875-7.121,15.875-15.875
		V16.202C166.51,7.449,159.39,0.327,150.635,0.327L150.635,0.327z"/>
</g>
<rect x="9.813" y="15.273" fill="none" width="152.888" height="41.52"/>
<text transform="matrix(1 0 0 1 32.1094 55.2788)" fill="#EC422E" font-family="'BebasNeue'" font-size="57.1496">START</text>
</svg>
